<mxfile host="app.diagrams.net" modified="2020-08-31T12:56:29.699Z" agent="5.0 (Windows NT 10.0; Win64; x64) AppleWebKit/537.36 (KHTML, like Gecko) Chrome/85.0.4183.83 Safari/537.36 Edg/85.0.564.41" etag="xl0_lElxnZnaesMC2rT7" version="13.6.6" type="github">
  <diagram name="Page-1" id="822b0af5-4adb-64df-f703-e8dfc1f81529">
    <mxGraphModel dx="1182" dy="774" grid="1" gridSize="10" guides="1" tooltips="1" connect="1" arrows="1" fold="1" page="1" pageScale="1" pageWidth="1100" pageHeight="850" background="#ffffff" math="0" shadow="0">
      <root>
        <mxCell id="0" />
        <mxCell id="1" parent="0" />
        <mxCell id="hOKnkmHe6JxO4ccgHOW9-1" value="" style="shape=image;html=1;verticalAlign=top;verticalLabelPosition=bottom;labelBackgroundColor=#ffffff;imageAspect=0;aspect=fixed;image=https://cdn4.iconfinder.com/data/icons/logos-brands-5/24/nginx-128.png" vertex="1" parent="1">
          <mxGeometry x="170" y="270" width="80" height="80" as="geometry" />
        </mxCell>
        <mxCell id="hOKnkmHe6JxO4ccgHOW9-2" value="" style="shape=image;html=1;verticalAlign=top;verticalLabelPosition=bottom;labelBackgroundColor=#ffffff;imageAspect=0;aspect=fixed;image=https://cdn4.iconfinder.com/data/icons/logos-brands-5/24/nginx-128.png" vertex="1" parent="1">
          <mxGeometry x="360" y="270" width="90" height="90" as="geometry" />
        </mxCell>
        <mxCell id="hOKnkmHe6JxO4ccgHOW9-3" value="" style="shape=image;html=1;verticalAlign=top;verticalLabelPosition=bottom;labelBackgroundColor=#ffffff;imageAspect=0;aspect=fixed;image=https://cdn4.iconfinder.com/data/icons/logos-brands-5/24/nginx-128.png" vertex="1" parent="1">
          <mxGeometry x="550" y="270" width="100" height="100" as="geometry" />
        </mxCell>
        <mxCell id="hOKnkmHe6JxO4ccgHOW9-6" style="edgeStyle=orthogonalEdgeStyle;rounded=0;orthogonalLoop=1;jettySize=auto;html=1;" edge="1" parent="1" source="hOKnkmHe6JxO4ccgHOW9-4" target="hOKnkmHe6JxO4ccgHOW9-3">
          <mxGeometry relative="1" as="geometry" />
        </mxCell>
        <mxCell id="hOKnkmHe6JxO4ccgHOW9-8" style="edgeStyle=orthogonalEdgeStyle;rounded=0;orthogonalLoop=1;jettySize=auto;html=1;" edge="1" parent="1" source="hOKnkmHe6JxO4ccgHOW9-4" target="hOKnkmHe6JxO4ccgHOW9-1">
          <mxGeometry relative="1" as="geometry" />
        </mxCell>
        <mxCell id="hOKnkmHe6JxO4ccgHOW9-9" style="edgeStyle=orthogonalEdgeStyle;rounded=0;orthogonalLoop=1;jettySize=auto;html=1;" edge="1" parent="1" source="hOKnkmHe6JxO4ccgHOW9-4" target="hOKnkmHe6JxO4ccgHOW9-2">
          <mxGeometry relative="1" as="geometry" />
        </mxCell>
        <mxCell id="hOKnkmHe6JxO4ccgHOW9-4" value="" style="shape=image;html=1;verticalAlign=top;verticalLabelPosition=bottom;labelBackgroundColor=#ffffff;imageAspect=0;aspect=fixed;image=https://cdn1.iconfinder.com/data/icons/web-and-mobile-in-square/100/WebInSquare_1.5EXTENDED-19-128.png" vertex="1" parent="1">
          <mxGeometry x="384" y="120" width="80" height="80" as="geometry" />
        </mxCell>
        <mxCell id="hOKnkmHe6JxO4ccgHOW9-10" value="" style="aspect=fixed;html=1;points=[];align=center;image;fontSize=12;image=img/lib/mscae/Cache_Redis_Product.svg;" vertex="1" parent="1">
          <mxGeometry x="50" y="500" width="50" height="42" as="geometry" />
        </mxCell>
        <mxCell id="hOKnkmHe6JxO4ccgHOW9-11" value="" style="aspect=fixed;html=1;points=[];align=center;image;fontSize=12;image=img/lib/mscae/Cache_Redis_Product.svg;" vertex="1" parent="1">
          <mxGeometry x="50" y="570" width="50" height="42" as="geometry" />
        </mxCell>
        <mxCell id="hOKnkmHe6JxO4ccgHOW9-12" value="" style="aspect=fixed;html=1;points=[];align=center;image;fontSize=12;image=img/lib/mscae/Cache_Redis_Product.svg;" vertex="1" parent="1">
          <mxGeometry x="140" y="500" width="50" height="42" as="geometry" />
        </mxCell>
        <mxCell id="hOKnkmHe6JxO4ccgHOW9-13" value="" style="aspect=fixed;html=1;points=[];align=center;image;fontSize=12;image=img/lib/mscae/Cache_Redis_Product.svg;" vertex="1" parent="1">
          <mxGeometry x="140" y="570" width="50" height="42" as="geometry" />
        </mxCell>
        <mxCell id="hOKnkmHe6JxO4ccgHOW9-14" value="" style="aspect=fixed;html=1;points=[];align=center;image;fontSize=12;image=img/lib/mscae/Cache_Redis_Product.svg;" vertex="1" parent="1">
          <mxGeometry x="230" y="510" width="50" height="42" as="geometry" />
        </mxCell>
        <mxCell id="hOKnkmHe6JxO4ccgHOW9-15" value="" style="aspect=fixed;html=1;points=[];align=center;image;fontSize=12;image=img/lib/mscae/Cache_Redis_Product.svg;" vertex="1" parent="1">
          <mxGeometry x="230" y="570" width="50" height="42" as="geometry" />
        </mxCell>
        <mxCell id="hOKnkmHe6JxO4ccgHOW9-16" value="" style="aspect=fixed;html=1;points=[];align=center;image;fontSize=12;image=img/lib/mscae/App_Services.svg;" vertex="1" parent="1">
          <mxGeometry x="200" y="720" width="50" height="50" as="geometry" />
        </mxCell>
        <mxCell id="hOKnkmHe6JxO4ccgHOW9-17" value="" style="aspect=fixed;html=1;points=[];align=center;image;fontSize=12;image=img/lib/mscae/App_Services.svg;" vertex="1" parent="1">
          <mxGeometry x="350" y="710" width="50" height="50" as="geometry" />
        </mxCell>
        <mxCell id="hOKnkmHe6JxO4ccgHOW9-18" value="" style="aspect=fixed;html=1;points=[];align=center;image;fontSize=12;image=img/lib/mscae/App_Services.svg;" vertex="1" parent="1">
          <mxGeometry x="540" y="710" width="50" height="50" as="geometry" />
        </mxCell>
      </root>
    </mxGraphModel>
  </diagram>
</mxfile>
